<?xml version="1.0" encoding="UTF-8" standalone="no"?>
<!-- Created with Inkscape (http://www.inkscape.org/) -->

<svg
   width="26.76144mm"
   height="23.999994mm"
   viewBox="0 0 26.761441 23.999994"
   version="1.1"
   id="svg1"
   inkscape:version="1.4 (e7c3feb1, 2024-10-09)"
   sodipodi:docname="certified container.svg"
   xmlns:inkscape="http://www.inkscape.org/namespaces/inkscape"
   xmlns:sodipodi="http://sodipodi.sourceforge.net/DTD/sodipodi-0.dtd"
   xmlns:xlink="http://www.w3.org/1999/xlink"
   xmlns="http://www.w3.org/2000/svg"
   xmlns:svg="http://www.w3.org/2000/svg">
  <sodipodi:namedview
     id="namedview1"
     pagecolor="#ffffff"
     bordercolor="#000000"
     borderopacity="0.25"
     inkscape:showpageshadow="false"
     inkscape:pageopacity="0.0"
     inkscape:pagecheckerboard="0"
     inkscape:deskcolor="#d1d1d1"
     inkscape:document-units="mm"
     borderlayer="true"
     inkscape:zoom="10.366539"
     inkscape:cx="14.710792"
     inkscape:cy="44.132376"
     inkscape:window-width="1920"
     inkscape:window-height="1052"
     inkscape:window-x="0"
     inkscape:window-y="28"
     inkscape:window-maximized="0"
     inkscape:current-layer="layer1" />
  <defs
     id="defs1">
    <linearGradient
       id="paint2_linear_612_1773"
       x1="20.5"
       y1="54.5"
       x2="360"
       y2="352"
       gradientUnits="userSpaceOnUse"
       inkscape:label="outline-gradient">
      <stop
         stop-color="#6AD2FA"
         id="stop29726" />
      <stop
         offset="0.494792"
         stop-color="#7669FA"
         id="stop29728" />
      <stop
         offset="0.744792"
         stop-color="#8850E4"
         id="stop29730" />
      <stop
         offset="1"
         stop-color="#CE0EBB"
         id="stop29732" />
    </linearGradient>
    <linearGradient
       inkscape:collect="always"
       xlink:href="#paint2_linear_612_1773"
       id="linearGradient19"
       x1="73.147713"
       y1="84.106102"
       x2="95.980217"
       y2="101.33844"
       gradientUnits="userSpaceOnUse"
       gradientTransform="matrix(1.1289334,0,0,1.1289334,19.613615,46.966067)" />
  </defs>
  <g
     inkscape:label="Layer 1"
     inkscape:groupmode="layer"
     id="layer1"
     transform="translate(-101.08432,-136.8114)">
    <path
       id="path17"
       style="fill:url(#linearGradient19);stroke-width:1;stroke-linecap:round;stroke-linejoin:round"
       d="m 123.27721,150.67575 c -0.98706,0 -1.79509,0.81895 -1.79509,1.80619 0,0.98723 0.80803,1.8056 1.79509,1.8056 0.98707,0 1.79452,-0.81837 1.79452,-1.8056 0,-0.98724 -0.80745,-1.80619 -1.79452,-1.80619 z m 0,-2.80028 c -2.51913,0 -4.56854,2.07294 -4.56854,4.60647 0,1.12832 0.40699,2.16401 1.08044,2.96713 -7e-5,0.007 -5.8e-4,0.006 -5.8e-4,0.0134 v 4.05983 c 0,0.37283 0.13091,0.66748 0.35762,0.92816 0.11335,0.13034 0.26072,0.25671 0.48071,0.32611 0.22,0.0695 0.52732,0.0357 0.74033,-0.10794 l 1.93395,-1.30328 1.88085,1.29861 a 0.59745183,0.59745183 0 0 0 0.33954,0.1085 c 0.68182,0 1.24379,-0.57098 1.24379,-1.25019 v -4.05983 c 0,-0.004 -4.6e-4,-0.008 -5.8e-4,-0.0128 0.67362,-0.80317 1.08102,-1.83924 1.08102,-2.96772 0,-2.53353 -2.04941,-4.60647 -4.56854,-4.60647 z m 0,1.19537 c 1.86744,0 3.37318,1.51734 3.37318,3.4111 0,0.9332 -0.36636,1.77397 -0.96085,2.38782 l -0.007,-0.0175 c -0.104,0.11687 -0.21584,0.22431 -0.33311,0.32437 -0.57141,0.4489 -1.2897,0.71582 -2.07221,0.71582 -1.86744,0 -3.37376,-1.51676 -3.37376,-3.41051 0,-1.89375 1.50632,-3.4111 3.37376,-3.4111 z m 2.29274,7.391 v 3.02081 l -1.92461,-1.33189 a 0.59745183,0.59745183 0 0 0 -0.67266,-0.005 l -1.98878,1.34064 v -2.97004 c 0.67854,0.38566 1.41243,0.65903 2.20522,0.65924 a 0.59745183,0.59745183 0 0 0 0.002,0 c 0.49728,-0.002 0.96999,-0.11021 1.41823,-0.28878 0.33884,-0.10457 0.6603,-0.24835 0.96085,-0.4253 z m -13.01199,-19.65041 a 0.59745294,0.59745294 0 0 0 -0.25261,0.0554 l -10.85635,5.04343 a 0.59745294,0.59745294 0 0 0 -0.035,0.0537 0.59745294,0.59745294 0 0 0 -0.29928,0.45796 0.59745294,0.59745294 0 0 0 -0.01,0.0175 0.59745294,0.59745294 0 0 0 -0.0204,0.0367 v 10.21229 a 0.59745294,0.59745294 0 0 0 0.29344,0.51455 l 10.84119,6.40215 a 0.59745294,0.59745294 0 0 0 0.005,0 0.59745294,0.59745294 0 0 0 0.29869,0.002 0.59745294,0.59745294 0 0 0 0.2987,-0.002 0.59745294,0.59745294 0 0 0 0.005,0 l 5.13736,-3.03364 c -0.007,-0.0502 -0.0117,-0.10136 -0.0117,-0.15343 v -1.22686 l -4.83166,2.85337 v -9.59622 l 9.6464,-4.99093 v 2.97939 h 1.19478 v -3.96065 a 0.59745294,0.59745294 0 0 0 -0.0595,-0.10502 0.59745294,0.59745294 0 0 0 -0.16918,-0.30045 0.59745294,0.59745294 0 0 0 -0.10092,-0.10676 0.59745294,0.59745294 0 0 0 -0.0309,-0.0315 L 112.81147,136.868 a 0.59745294,0.59745294 0 0 0 -0.25319,-0.0566 z m -0.002,1.25663 9.44046,4.43087 -9.49063,4.90516 -1.2998,-0.67324 -8.15291,-4.24826 z m -10.27704,5.38938 8.40494,4.34919 1.24146,0.6464 v 9.59156 l -9.64635,-5.69683 z" />
  </g>
</svg>
