<?xml version="1.0" encoding="UTF-8" standalone="no"?>
<svg
   width="7"
   height="7"
   viewBox="2635 427 6.9999998 7"
   fill="none"
   version="1.1"
   id="svg5"
   xmlns="http://www.w3.org/2000/svg"
   xmlns:svg="http://www.w3.org/2000/svg">
  <defs
     id="defs5" />
  <path
     d="m 2636.278,429.937 c -0.083,0.078 -0.131,0.186 -0.131,0.3 0,0.226 0.184,0.41 0.41,0.41 h 1.061 v 1.765 c 0,0.325 0.262,0.588 0.588,0.588 h 0.588 c 0.325,0 0.588,-0.263 0.588,-0.588 v -1.765 h 1.061 c 0.226,0 0.41,-0.184 0.41,-0.41 0,-0.114 -0.048,-0.222 -0.131,-0.3 l -1.968,-1.836 c -0.07,-0.064 -0.16,-0.101 -0.254,-0.101 -0.094,0 -0.186,0.037 -0.254,0.101 z m 0,0 z"
     style="fill:#ffffff;fill-opacity:1"
     class="fills"
     id="path1" />
  <g
     class="strokes"
     id="g5"
     transform="translate(-1.853,-2)">
    <g
       class="outer-stroke-shape"
       id="g4">
      <defs
         id="defs2">
        <mask
           id="b"
           x="2635.586"
           y="427.586"
           width="9.534"
           height="9.828"
           maskUnits="userSpaceOnUse">
          <use
             href="#a"
             style="fill:none;stroke:#ffffff;stroke-width:2"
             id="use1" />
          <use
             href="#a"
             style="fill:#000000;stroke:none"
             id="use2" />
        </mask>
        <path
           d="m 2638.131,431.937 c -0.083,0.078 -0.131,0.186 -0.131,0.3 0,0.226 0.184,0.41 0.41,0.41 h 1.061 v 1.765 c 0,0.325 0.262,0.588 0.588,0.588 h 0.588 c 0.325,0 0.588,-0.263 0.588,-0.588 v -1.765 h 1.061 c 0.226,0 0.41,-0.184 0.41,-0.41 0,-0.114 -0.048,-0.222 -0.131,-0.3 l -1.968,-1.836 c -0.07,-0.064 -0.16,-0.101 -0.254,-0.101 -0.094,0 -0.186,0.037 -0.254,0.101 z m 0,0 z"
           id="a" />
      </defs>
      <use
         href="#a"
         mask="url(#b)"
         style="fill:none;stroke:#37255d;stroke-width:2;stroke-opacity:1"
         id="use3" />
      <use
         href="#a"
         style="fill:none;stroke:none;stroke-width:1;stroke-opacity:1"
         id="use4" />
    </g>
  </g>
</svg>
