<?xml version="1.0" encoding="UTF-8" standalone="no"?>
<!-- Created with Inkscape (http://www.inkscape.org/) -->

<svg
   width="21.166645mm"
   height="14.816667mm"
   viewBox="0 0 21.166645 14.816667"
   version="1.1"
   id="svg1"
   inkscape:version="1.4 (e7c3feb1, 2024-10-09)"
   sodipodi:docname="grow.svg"
   xmlns:inkscape="http://www.inkscape.org/namespaces/inkscape"
   xmlns:sodipodi="http://sodipodi.sourceforge.net/DTD/sodipodi-0.dtd"
   xmlns:xlink="http://www.w3.org/1999/xlink"
   xmlns="http://www.w3.org/2000/svg"
   xmlns:svg="http://www.w3.org/2000/svg">
  <sodipodi:namedview
     id="namedview1"
     pagecolor="#ffffff"
     bordercolor="#000000"
     borderopacity="0.25"
     inkscape:showpageshadow="2"
     inkscape:pageopacity="0.0"
     inkscape:pagecheckerboard="0"
     inkscape:deskcolor="#d1d1d1"
     inkscape:document-units="mm"
     inkscape:zoom="4.5539456"
     inkscape:cx="42.710216"
     inkscape:cy="29.974008"
     inkscape:window-width="1104"
     inkscape:window-height="904"
     inkscape:window-x="879"
     inkscape:window-y="30"
     inkscape:window-maximized="0"
     inkscape:current-layer="layer1" />
  <defs
     id="defs1">
    <linearGradient
       id="paint2_linear_612_1773"
       x1="20.5"
       y1="54.5"
       x2="360"
       y2="352"
       gradientUnits="userSpaceOnUse"
       inkscape:label="outline-gradient">
      <stop
         stop-color="#6AD2FA"
         id="stop29726" />
      <stop
         offset="0.494792"
         stop-color="#7669FA"
         id="stop29728" />
      <stop
         offset="0.744792"
         stop-color="#8850E4"
         id="stop29730" />
      <stop
         offset="1"
         stop-color="#CE0EBB"
         id="stop29732" />
    </linearGradient>
    <linearGradient
       inkscape:collect="always"
       xlink:href="#paint2_linear_612_1773"
       id="linearGradient110"
       x1="395.10483"
       y1="51.853756"
       x2="420.97415"
       y2="71.14872"
       gradientUnits="userSpaceOnUse" />
  </defs>
  <g
     inkscape:label="Layer 1"
     inkscape:groupmode="layer"
     id="layer1"
     transform="translate(-74.083338,-30.162499)">
    <g
       id="path4-7"
       class="st0"
       style="fill:#000000;fill-opacity:1;stroke-width:1.14997"
       transform="matrix(0.86958842,0,0,0.86958842,-269.66138,-15.577681)">
      <path
         id="path109"
         style="fill:url(#linearGradient110);stroke-width:1.14997;stroke-linecap:round;stroke-linejoin:round;paint-order:stroke fill markers"
         d="m 413.38528,56.073662 c -0.0426,-0.04258 -0.0852,-0.05677 -0.14193,-0.05677 v 0 c -0.0142,0 -0.0426,0 -0.0568,0 h -1.81668 c -0.12774,0 -0.22709,0.09935 -0.22709,0.227084 0,0.127735 0.0993,0.227085 0.22709,0.227085 h 1.30573 l -1.29154,1.277352 h -2.12892 c -0.12774,0 -0.22709,0.09935 -0.22709,0.227084 v 2.015376 h -2.01537 c -0.12773,0 -0.22708,0.09935 -0.22708,0.227085 v 2.015377 h -2.01538 c -0.12774,0 -0.22709,0.09935 -0.22709,0.227084 v 2.015377 h -2.01537 c -0.0426,0.04258 -0.071,0.08516 -0.0994,0.127735 -0.0568,0.113542 -0.0142,0.283856 0.0994,0.326434 h 2.25665 c 0.12774,0 0.22709,-0.09935 0.22709,-0.227085 v -2.015376 h 2.01537 c 0.12773,0 0.22708,-0.09935 0.22708,-0.227085 v -2.015376 h 2.01538 c 0.12774,0 0.22709,-0.09935 0.22709,-0.227085 v -2.015376 h 2.01537 c 0.071,0 0.14193,-0.04258 0.18451,-0.08516 l 1.31993,-1.31993 v 1.305737 c 0,0.127735 0.0993,0.227085 0.21289,0.227085 0.12774,0 0.22708,-0.09935 0.22708,-0.227085 v -1.873448 c 0,-0.07097 -0.0284,-0.127736 -0.071,-0.170314 z m -2.01614,-0.288506 c -0.24829,0 -0.45898,0.210693 -0.45898,0.458985 0,0.24823 0.21069,0.458984 0.45898,0.458984 h 0.74219 l -0.82227,0.8125 h -2.0332 c -0.24829,0 -0.46094,0.210693 -0.46094,0.458984 v 1.783203 h -1.7832 c -0.24829,0 -0.45899,0.212647 -0.45899,0.460938 V 62 h -1.7832 c -0.24829,0 -0.45898,0.212646 -0.45898,0.460937 v 1.783204 h -1.78321 a 0.23252325,0.23252325 0 0 0 -0.16406,0.06641 c -0.0609,0.06084 -0.10051,0.121494 -0.12891,0.164062 A 0.23252325,0.23252325 0 0 0 402.2207,64.5 c -0.0596,0.11917 -0.0622,0.242442 -0.0293,0.357422 0.0329,0.11498 0.11065,0.237323 0.2539,0.291015 a 0.23252325,0.23252325 0 0 0 0.082,0.01367 h 2.25782 c 0.24829,0 0.45898,-0.210693 0.45898,-0.458984 V 62.91992 h 1.7832 c 0.24829,0 0.45899,-0.210693 0.45899,-0.458985 v -1.783203 h 1.7832 c 0.24829,0 0.45899,-0.210693 0.45899,-0.458984 v -1.783203 h 1.7832 c 0.16396,0 0.27054,-0.07523 0.34961,-0.154297 l 0.92187,-0.923828 v 0.746094 c 0,0.24823 0.19616,0.458984 0.44532,0.458984 0.24829,0 0.46093,-0.210705 0.46093,-0.458984 v -1.873047 c 0,-0.06809 -0.0463,-0.113661 -0.0723,-0.171875 -0.0248,-0.05549 -0.0297,-0.125461 -0.0684,-0.164063 a 0.23252325,0.23252325 0 0 0 -0.0723,-0.01367 c -0.0756,-0.04778 -0.15953,-0.0957 -0.23242,-0.0957 h -0.0566 z M 412.70312,56.25 h 0.48438 0.0371 v 0.511719 a 0.23252325,0.23252325 0 0 0 -0.37305,-0.128907 l -1.32031,1.320313 c -0.006,0.0061 -0.0415,0.01758 -0.0195,0.01758 h -0.10352 a 0.23252325,0.23252325 0 0 0 0.13867,-0.05664 l 1.29297,-1.277343 A 0.23252325,0.23252325 0 0 0 412.70312,56.25 Z m -3.44335,1.730469 h 0.22656 a 0.23252325,0.23252325 0 0 0 -0.22266,0.222656 v 2.009766 h -0.22656 a 0.23252325,0.23252325 0 0 0 0.22266,-0.222657 z m -2.24219,2.242187 h 0.22656 a 0.23252325,0.23252325 0 0 0 -0.22266,0.222656 v 2.009766 h -0.22461 a 0.23252325,0.23252325 0 0 0 0.22071,-0.222656 z m -2.24219,2.244141 H 405 a 0.23252325,0.23252325 0 0 0 -0.2207,0.220703 v 2.009766 h -0.22461 a 0.23252325,0.23252325 0 0 0 0.2207,-0.220704 z m -7.65396,7.171718 q -0.75304,0 -1.28931,-0.536268 -0.53625,-0.536263 -0.53625,-1.289309 h 4.25968 q -0.75305,0 -1.28931,-0.536263 -0.53625,-0.536263 -0.53625,-1.289314 V 54.425376 q 0,-0.753046 0.53625,-1.289309 0.53626,-0.536264 1.28931,-0.536264 h 15.82165 q 0.75305,0 1.28935,0.536264 0.53625,0.536263 0.53625,1.289309 v 11.561985 q 0,0.753051 -0.53625,1.289314 -0.5363,0.536263 -1.28935,0.536263 h 4.25967 q 0,0.760654 -0.53625,1.293114 -0.53625,0.532463 -1.2893,0.532463 z m 10.33961,-0.912791 q 0.38547,0 0.65189,-0.260904 0.26633,-0.260905 0.26633,-0.646559 0,-0.385654 -0.26081,-0.651881 -0.26081,-0.266241 -0.64655,-0.266241 -0.38547,0 -0.65191,0.260904 -0.26632,0.260905 -0.26632,0.646559 0,0.385654 0.2608,0.651881 0.26082,0.266241 0.64657,0.266241 z m -7.90549,-2.738363 H 415.3772 V 54.425376 h -15.82165 z m 0,0 V 54.425376 Z" />
    </g>
  </g>
</svg>
